<?xml version="1.0" encoding="UTF-8" standalone="no"?>
<svg
   xmlns:dc="http://purl.org/dc/elements/1.1/"
   xmlns:cc="http://creativecommons.org/ns#"
   xmlns:rdf="http://www.w3.org/1999/02/22-rdf-syntax-ns#"
   xmlns:svg="http://www.w3.org/2000/svg"
   xmlns="http://www.w3.org/2000/svg"
   xmlns:sodipodi="http://sodipodi.sourceforge.net/DTD/sodipodi-0.dtd"
   xmlns:inkscape="http://www.inkscape.org/namespaces/inkscape"
   id="Layer_1"
   data-name="Layer 1"
   viewBox="0 0 674.27071 137.61835"
   version="1.1"
   sodipodi:docname="al-banner.svg"
   width="674.27069"
   height="137.61835"
   inkscape:version="0.92.2 (5c3e80d, 2017-08-06)">
  <metadata
     id="metadata108">
    <rdf:RDF>
      <cc:Work
         rdf:about="">
        <dc:format>image/svg+xml</dc:format>
        <dc:type
           rdf:resource="http://purl.org/dc/dcmitype/StillImage" />
        <dc:title>Untitled-4</dc:title>
      </cc:Work>
    </rdf:RDF>
  </metadata>
  <sodipodi:namedview
     pagecolor="#ffffff"
     bordercolor="#666666"
     borderopacity="1"
     objecttolerance="10"
     gridtolerance="10"
     guidetolerance="10"
     inkscape:pageopacity="0"
     inkscape:pageshadow="2"
     inkscape:window-width="1600"
     inkscape:window-height="837"
     id="namedview106"
     showgrid="false"
     fit-margin-left="5"
     fit-margin-top="5"
     fit-margin-right="5"
     fit-margin-bottom="5"
     inkscape:zoom="2.1754513"
     inkscape:cx="337.11499"
     inkscape:cy="68.816217"
     inkscape:window-x="-8"
     inkscape:window-y="-8"
     inkscape:window-maximized="1"
     inkscape:current-layer="Layer_1" />
  <defs
     id="defs62">
    <style id="al_style">
      .line{fill:#929cad;}
      .assembly{fill:#586a88;}
      .crane{fill:#eba75b;}
      .accent{fill:#555;}
    </style>
  </defs>
  <title
     id="title64">Assemblyline_banner</title>
  <path
     class="line"
     d="m 420.28,91.037127 h 33.16 a 2.76,2.76 0 0 1 1.89,0.75 2.42,2.42 0 0 1 0.83,1.89 v 15.120003 a 2.7,2.7 0 0 1 -2.63,2.63 h -54.82 a 2.62,2.62 0 0 1 -1.93,-0.79 2.52,2.52 0 0 1 -0.79,-1.84 V 45.297127 a 2.6,2.6 0 0 1 0.75,-1.84 2.48,2.48 0 0 1 1.89,-0.79 h 19 a 2.67,2.67 0 0 1 1.89,0.79 2.46,2.46 0 0 1 0.83,1.84 z"
     id="path66"
     inkscape:connector-curvature="0" />
  <path
     class="line"
     d="m 604.97,71.157127 a 1.65,1.65 0 0 0 -1,-0.94 l -15.86,-6.68 a 1.65,1.65 0 0 0 -1.34,0 1.56,1.56 0 0 0 -0.91,0.87 l -13.78,32.93 -2.68,-11.37 c -0.64,-2.71 -1.33,-5.46 -2,-8.18 -1.07,-4.19 -2.09,-8.29 -3,-12.19 -0.91,-3.9 -2,-8.18 -3,-12.45 v -0.12 -0.12 a 1.53,1.53 0 0 0 -0.29,-0.42 2.15,2.15 0 0 0 -0.69,-0.57 l -11.74,-4.91 0.32,2.67 a 2.19,2.19 0 0 1 1.12,1.67 l 0.71,6 a 2.16,2.16 0 0 1 -0.45,1.6 2.19,2.19 0 0 1 -1.47,0.82 l -1.5,0.18 h -0.29 a 2.54,2.54 0 0 1 -2.13,-1.17 l -4.54,-7.15 a 6.24,6.24 0 0 1 -0.92,-2.58 l -0.23,-1.93 -24,57.310003 a 1.73,1.73 0 0 0 0.89,2.17 l 15.95,6.67 a 1.64,1.64 0 0 0 1.34,0 1.56,1.56 0 0 0 0.91,-0.87 l 13.55,-32.390003 10.78,43.660003 a 1.82,1.82 0 0 0 0.44,0.65 2.08,2.08 0 0 0 0.61,0.5 l 18.32,7.66 a 1.66,1.66 0 0 0 1.34,0 1.56,1.56 0 0 0 0.91,-0.87 l 24.77,-59.200003 a 1.56,1.56 0 0 0 -0.14,-1.25 z"
     id="path68"
     inkscape:connector-curvature="0" />
  <polygon
     class="line"
     points=""
     id="polygon70"
     transform="translate(5,4.9771274)" />
  <path
     class="line"
     d="m 613.11,111.41713 a 2.7,2.7 0 0 1 -2.63,-2.63 V 45.247127 a 2.7,2.7 0 0 1 2.63,-2.63 h 53.46 a 2.7,2.7 0 0 1 2.63,2.63 v 12.81 a 2.63,2.63 0 0 1 -0.79,1.93 2.52,2.52 0 0 1 -1.84,0.79 h -33.46 v 7 h 26.92 a 2.7,2.7 0 0 1 2.63,2.63 v 12.63 a 2.63,2.63 0 0 1 -0.79,1.93 2.53,2.53 0 0 1 -1.84,0.79 h -26.92 v 7.46 h 33.52 a 2.49,2.49 0 0 1 1.89,0.79 2.7,2.7 0 0 1 0.75,1.93 v 12.860003 a 2.6,2.6 0 0 1 -0.75,1.84 2.49,2.49 0 0 1 -1.89,0.79 z"
     id="path72"
     inkscape:connector-curvature="0" />
  <path
     class="assembly"
     d="M 65.11,111.41713 H 58.83 L 52.65,97.277127 H 17.26 L 11.08,111.27713 H 5 q 0.88,-2.16 1.67,-3.93 0.79,-1.77 1.67,-3.83 l 3.24,-7.460003 23.46,-55.45 z m -15.07,-20.120003 -15,-35.92 q -0.79,1.87 -1.72,4.17 -0.93,2.3 -1.91,4.66 -1,2.35 -2,4.61 -1,2.26 -1.86,4 -0.79,1.87 -1.82,4.22 -1.03,2.35 -2.06,4.81 l -2.04,4.95 q -1,2.45 -1.91,4.51 z"
     id="path74"
     inkscape:connector-curvature="0" />
  <path
     class="assembly"
     d="m 154.72,48.607127 v 25.12 h 30.31 v 5.3 h -30.31 v 26.400003 h 35.39 v 6 H 148.63 V 42.627127 h 41.48 v 6 z"
     id="path76"
     inkscape:connector-curvature="0" />
  <path
     class="assembly"
     d="m 248.85,41.707127 v 69.580003 h -6.08 V 58.797127 l -20.66,23.36 -20.49,-23.53 v 52.660003 h -6 V 41.797127 l 26.49,30.63 z"
     id="path78"
     inkscape:connector-curvature="0" />
  <path
     class="assembly"
     d="m 354.89,105.42713 v 6 H 308.43 V 42.727127 h 6 v 62.710003 z"
     id="path80"
     inkscape:connector-curvature="0" />
  <path
     class="assembly"
     d="m 376.46,53.317127 q 1,-1.37 2,-2.7 l 2.11,-2.7 4,-5.2 h 7.36 l -24.5,32.58 -1.18,1.5 v 34.640003 h -6.08 V 76.797127 l -5.4,-7.07 q -2.35,-3.24 -4.76,-6.43 l -4.9,-6.45 -4.32,-5.59 -6.48,-8.54 h 7.46 l 21.4,28.17 q 2.26,-3 5.2,-6.92 l 5.5,-7.21 z"
     id="path82"
     inkscape:connector-curvature="0" />
  <path
     class="assembly"
     d="m 100.95,82.187127 a 19.94,19.94 0 0 0 -13.56,-8 37.11,37.11 0 0 0 -4.61,-0.18 37.52,37.52 0 0 1 -6.13,-0.44 13.41,13.41 0 0 1 -7.27,-5.28 13.94,13.94 0 0 1 -1.84,-12.14 10.86,10.86 0 0 1 4.88,-6 c 2.91,-1.62 9.43,-1.59 12.77,-1.57 h 10.55 a 19.7,19.7 0 0 1 5.13,-6 c -4.13,0 -11.13,0 -14.87,0 -2.83,0 -8.69,-0.06 -11.48,0.45 a 15.67,15.67 0 0 0 -12.23,10.27 22,22 0 0 0 -1.19,5.71 19.61,19.61 0 0 0 3.52,12.79 19.94,19.94 0 0 0 13.56,8 37.12,37.12 0 0 0 4.61,0.18 37.52,37.52 0 0 1 6.13,0.44 13.41,13.41 0 0 1 7.27,5.28 13.94,13.94 0 0 1 1.84,12.14 10.86,10.86 0 0 1 -4.88,6.000003 c -2.91,1.62 -9.43,1.59 -12.77,1.57 H 66.81 l 2.53,6 c 0,0 6.48,0 10.23,0 2.83,0 8.69,0.06 11.48,-0.45 a 15.67,15.67 0 0 0 12.23,-10.27 22,22 0 0 0 1.19,-5.710003 19.61,19.61 0 0 0 -3.52,-12.79 z"
     id="path84"
     inkscape:connector-curvature="0" />
  <path
     class="assembly"
     d="m 303.04,91.287127 c -0.37,-6 -4.25,-11 -9.46,-13.75 a 29.67,29.67 0 0 0 -2.82,-1.33 13.42,13.42 0 0 0 1.67,-0.82 v 0 a 16.49,16.49 0 0 0 9.18,-13.35 17.12,17.12 0 0 0 -4.35,-12.15 c -4.52,-5.13 -11.28,-7.27 -18,-7.27 h -25 v 68.670003 h 25.77 c 6.88,0 13.84,-2.2 18.5,-7.48 a 17.64,17.64 0 0 0 4.51,-12.520003 z m -42.65,-42.49 h 21.91 a 13.45,13.45 0 0 1 10.52,5.19 11.68,11.68 0 0 1 2.65,6.3 9.45,9.45 0 0 1 0,1.81 10.58,10.58 0 0 1 -0.67,2.63 11.6,11.6 0 0 1 -1.29,2.4 13.06,13.06 0 0 1 -1.25,1.52 14.53,14.53 0 0 1 -2.26,1.91 15.93,15.93 0 0 1 -2.58,1.44 12.87,12.87 0 0 1 -1.39,0.52 14.82,14.82 0 0 1 -3,0.59 q -0.81,0.07 -1.66,0.07 h -20.98 z m 36.22,45.13 a 10.58,10.58 0 0 1 -0.44,1.72 12.13,12.13 0 0 1 -0.71,1.64 14.14,14.14 0 0 1 -1.47,2.25 13.85,13.85 0 0 1 -10.88,5.370003 H 260.57 V 79.797127 h 21.54 a 17.39,17.39 0 0 1 3.33,0.31 14.43,14.43 0 0 1 1.52,0.38 13.27,13.27 0 0 1 1.43,0.54 16,16 0 0 1 4.26,2.75 13.74,13.74 0 0 1 2,2.28 11.65,11.65 0 0 1 1.87,4.26 9.94,9.94 0 0 1 0.2,2.78 q -0.04,0.41 -0.11,0.85 z"
     id="path86"
     inkscape:connector-curvature="0" />
  <path
     class="assembly"
     d="m 140.82,82.187127 a 19.94,19.94 0 0 0 -13.56,-8 37.11,37.11 0 0 0 -4.61,-0.18 37.52,37.52 0 0 1 -6.13,-0.44 13.41,13.41 0 0 1 -7.27,-5.28 13.94,13.94 0 0 1 -1.84,-12.14 10.86,10.86 0 0 1 4.88,-6 c 2.91,-1.62 9.43,-1.59 12.77,-1.57 h 10.55 a 19.7,19.7 0 0 1 5.13,-6 c -4.13,0 -11.13,0 -14.87,0 -2.83,0 -8.69,-0.06 -11.48,0.45 a 15.67,15.67 0 0 0 -12.28,10.32 22,22 0 0 0 -1.19,5.71 19.61,19.61 0 0 0 3.52,12.79 19.94,19.94 0 0 0 13.56,8 37.12,37.12 0 0 0 4.61,0.18 37.52,37.52 0 0 1 6.13,0.44 13.41,13.41 0 0 1 7.27,5.28 13.94,13.94 0 0 1 1.84,12.14 10.86,10.86 0 0 1 -4.88,6.000003 c -2.91,1.62 -9.43,1.59 -12.77,1.57 h -13.52 a 19.7,19.7 0 0 1 -5.13,6 c 4.13,0 14.15,0 17.89,0 2.83,0 8.69,0.06 11.48,-0.45 a 15.67,15.67 0 0 0 12.19,-10.31 22,22 0 0 0 1.19,-5.710003 19.61,19.61 0 0 0 -3.48,-12.8 z"
     id="path88"
     inkscape:connector-curvature="0" />
  <path
     class="crane"
     d="M 551.5,19.237127 A 7.56,7.56 0 0 0 540.76,9.6571274 l -26.45,0.4099996 v 0 a 11.87,11.87 0 1 0 -16,16.88 l 2.63,18 -22.83,11.53 a 12,12 0 0 0 -6.57,10.68 v 12.83 h -1.43 a 1.09,1.09 0 0 0 -1.18,0.78 v 2 h 33 v -2 a 1.09,1.09 0 0 0 -1.18,-0.78 h -1.08 l 20.64,-20.74 a 11.11,11.11 0 0 0 0.57,-14.42 l -0.18,-0.21 -6.68,-20.51 q 0.35,-0.46 0.65,-0.95 l 24.54,-1.53 a 7.6,7.6 0 0 0 1.42,1.11 l 1,6.92 11.12,-1.31 z"
     id="path90"
     inkscape:connector-curvature="0" />
  <path
     class="accent"
     d="m 558.25,32.897127 a 0.18,0.18 0 0 0 -0.09,-0.14 l -0.72,-0.44 a 0.18,0.18 0 0 0 -0.12,0 l -2.66,0.31 a 0.2,0.2 0 0 0 0.1,-0.18 l -0.26,-2.18 a 0.18,0.18 0 0 0 -0.2,-0.16 l -13.47,1.59 a 0.18,0.18 0 0 0 -0.16,0.2 l 0.26,2.18 a 0.18,0.18 0 0 0 0.16,0.15 l -2.68,0.32 a 0.18,0.18 0 0 0 -0.11,0.05 l -0.6,0.6 a 0.18,0.18 0 0 0 -0.05,0.15 l 0.57,4.78 a 0.18,0.18 0 0 0 0.09,0.14 l 0.73,0.44 a 0.18,0.18 0 0 0 0.12,0 l 1.36,-0.16 a 0.17,0.17 0 0 0 -0.08,0.16 l 1,8.06 a 4.19,4.19 0 0 0 0.62,1.75 l 4.53,7.15 a 0.52,0.52 0 0 0 0.5,0.24 l 1.5,-0.18 a 0.18,0.18 0 0 0 0.16,-0.2 l -0.71,-6 a 0.18,0.18 0 0 0 -0.2,-0.16 l -0.55,0.07 a 0.18,0.18 0 0 1 -0.2,-0.16 l -1.38,-11.18 a 0.17,0.17 0 0 0 -0.11,-0.14 l 12.46,-1.47 a 0.18,0.18 0 0 0 0.11,-0.05 l 0.6,-0.6 a 0.18,0.18 0 0 0 0.05,-0.15 z"
     id="path92"
     inkscape:connector-curvature="0" />
  <path
     class="accent"
     d="m 557.62,47.027127 -0.78,-6.62 -4.33,0.54 0.73,5.83 4.24,1.69 a 3.45,3.45 0 0 0 0.14,-1.44 z"
     id="path94"
     inkscape:connector-curvature="0" />
  <g
     id="_Group_"
     data-name="&lt;Group&gt;"
     transform="translate(5,4.9771274)">
    <path
       class="accent"
       d="M 544.32,323.29 H 528.1 a 0.7,0.7 0 0 0 -0.67,0.61 l -2.6,22.77 a 0.31,0.31 0 0 1 -0.32,0.26 h -3.3 c -0.65,0 -1.14,0.24 -1.14,0.92 v 1.44 a 0.31,0.31 0 0 0 0.32,0.29 h 47.85 a 0.31,0.31 0 0 0 0.32,-0.29 v -1.44 c 0,-0.69 -0.49,-0.92 -1.14,-0.92 h -3.3 a 0.31,0.31 0 0 1 -0.32,-0.26 l -2.6,-22.77 a 0.7,0.7 0 0 0 -0.67,-0.61 z"
       transform="translate(-63.89,-243.18)"
       id="path96"
       inkscape:connector-curvature="0" />
  </g>
  <circle
     class="accent"
     cx="402.92215"
     cy="304.19669"
     r="5.2800002"
     transform="rotate(-35.14)"
     id="circle99"/>
  <circle
     class="accent"
     cx="16.724442"
     cy="514.41187"
     r="6.3600001"
     transform="rotate(-82.41)"
     id="circle101"/>
  <circle
     class="accent"
     cx="522.43359"
     cy="154.50157"
     r="3.1300001"
     transform="rotate(-14.77)"
     id="circle103"/>
</svg>
